<svg width="28" height="26" viewBox="0 0 28 26" fill="none" xmlns="http://www.w3.org/2000/svg">
<path d="M5.66669 6.33334H24.0534C24.4259 6.33336 24.7943 6.41144 25.1349 6.56255C25.4754 6.71366 25.7805 6.93446 26.0305 7.2107C26.2805 7.48694 26.4698 7.81249 26.5863 8.16638C26.7027 8.52027 26.7438 8.89463 26.7067 9.26534L25.9067 17.2653C25.8409 17.9234 25.5329 18.5334 25.0426 18.9772C24.5523 19.4209 23.9146 19.6667 23.2534 19.6667H10.52C9.90332 19.6669 9.30559 19.4534 8.82861 19.0625C8.35164 18.6716 8.02489 18.1274 7.90402 17.5227L5.66669 6.33334Z" stroke="white" stroke-width="2" stroke-linejoin="round"/>
<path d="M20.3334 25H23M5.66669 6.33333L4.58669 2.00933C4.51446 1.721 4.34796 1.46508 4.11363 1.28221C3.8793 1.09934 3.59059 1.00001 3.29335 1H1.66669L5.66669 6.33333ZM9.66669 25H12.3334H9.66669Z" stroke="white" stroke-width="2" stroke-linecap="round" stroke-linejoin="round"/>
</svg>
