<svg width="240" height="48" viewBox="0 0 240 48" fill="none" xmlns="http://www.w3.org/2000/svg">
<g clip-path="url(#clip0_1_250)">
<path d="M73.6 2.40002C73.6 11.9478 70.4 21.6 65.6 27.8559C59.2 34.4 59.2 38.4 40.8355 38.4C22.471 38.4 22.4 35.3842 15.3797 27.8559C8.35941 20.3275 8 12.7478 8 3.20002H14.4C14.4 16.8 19.9021 23.3335 19.9021 23.3335C19.9021 23.3335 24.8355 32.0043 40.8355 32.0043C56.8355 32.0043 60.8 23.3335 60.8 23.3335C60.8 23.3335 66.2914 13.6 66.2914 2.40002H73.6Z" fill="#2F2105"/>
<path d="M66.3354 15.2436C66.985 17.3708 68.3032 19.2319 70.0946 20.5505C71.8858 21.8691 74.0546 22.575 76.2787 22.5631C78.5029 22.5513 80.664 21.8225 82.4413 20.4851C84.2184 19.1476 85.517 17.2726 86.144 15.1386C86.771 13.0045 86.6931 10.7252 85.9219 8.63888C85.1507 6.55261 83.7274 4.77064 81.8629 3.55754C79.9986 2.34445 77.7928 1.7649 75.573 1.90491C73.3531 2.04494 71.2376 2.89709 69.5405 4.33485L72.9834 8.3987C73.8062 7.70157 74.832 7.2884 75.9083 7.2205C76.9846 7.15261 78.0541 7.43362 78.9581 8.02181C79.8621 8.61 80.5523 9.47402 80.9262 10.4856C81.3002 11.4972 81.3379 12.6024 81.0339 13.6371C80.7298 14.6718 80.1002 15.5809 79.2386 16.2294C78.3768 16.878 77.329 17.2313 76.2506 17.2371C75.172 17.2428 74.1205 16.9006 73.252 16.2612C72.3834 15.6219 71.7442 14.7195 71.4293 13.688L66.3354 15.2436Z" fill="#2F2105"/>
<path d="M62.4 2.55192C62.4 9.51335 60.04 16.1896 55.8392 21.1122C51.6384 26.0346 45.9408 28.8 40 28.8C34.0592 28.8 28.3616 26.0346 24.1608 21.1122C19.96 16.1896 17.6 9.51335 17.6 2.55192C17.6 2.55192 30.4 8.29373 40 2.55192C49.6 -3.1899 62.4 2.55192 62.4 2.55192Z" fill="#FF912B"/>
<path d="M70.0085 43.2H11.5915C10.4916 43.2 9.60001 44.2745 9.60001 45.6C9.60001 46.9254 10.4916 48 11.5915 48H70.0085C71.1084 48 72 46.9254 72 45.6C72 44.2745 71.1084 43.2 70.0085 43.2Z" fill="#2F2105"/>
<path d="M107.334 34.0879C105.023 34.0879 103.012 33.668 101.303 32.828C99.5935 31.9686 98.2824 30.7576 97.3694 29.1949C96.4565 27.6323 96 25.8157 96 23.7452C96 20.8739 96.5342 18.3249 97.6025 16.0981C98.6903 13.8714 100.157 12.1525 102.002 10.9414C103.847 9.71085 105.897 9.09557 108.15 9.09557C110.248 9.09557 111.841 9.64248 112.928 10.7363C114.016 11.8106 114.56 13.2365 114.56 15.014C114.56 16.2055 114.346 17.1627 113.919 17.8854C113.511 18.6081 112.919 18.9694 112.142 18.9694C111.598 18.9694 111.17 18.8425 110.86 18.5886C110.549 18.3346 110.393 17.9635 110.393 17.4752C110.393 17.2994 110.432 16.9771 110.51 16.5083C110.627 15.9223 110.685 15.4535 110.685 15.1019C110.685 13.3244 109.743 12.4357 107.859 12.4357C106.577 12.4357 105.353 12.8556 104.187 13.6956C103.022 14.5355 102.08 15.7758 101.361 17.4166C100.642 19.0378 100.283 20.9716 100.283 23.2179C100.283 25.5618 100.934 27.3784 102.235 28.6675C103.537 29.9372 105.46 30.572 108.004 30.572C109.267 30.572 110.539 30.4157 111.821 30.1032C113.123 29.7712 114.56 29.2731 116.133 28.6089C116.425 28.4917 116.668 28.4331 116.862 28.4331C117.173 28.4331 117.406 28.5503 117.561 28.7847C117.716 29.0191 117.794 29.3219 117.794 29.693C117.794 30.8845 117.153 31.7635 115.871 32.33C114.492 32.9355 113.055 33.3847 111.559 33.6777C110.083 33.9512 108.674 34.0879 107.334 34.0879ZM119.092 34.0879C117.888 34.0879 116.926 33.6484 116.208 32.7695C115.489 31.8905 115.13 30.738 115.13 29.3121C115.13 27.7495 115.489 26.2748 116.208 24.8879C116.926 23.4816 117.878 22.3584 119.063 21.5185C120.267 20.659 121.54 20.2293 122.88 20.2293C123.307 20.2293 123.589 20.3172 123.725 20.493C123.88 20.6493 124.007 20.9423 124.104 21.372C124.512 21.2939 124.939 21.2548 125.386 21.2548C126.338 21.2548 126.813 21.5966 126.813 22.2803C126.813 22.6905 126.668 23.6671 126.376 25.2102C125.93 27.4565 125.706 29.0191 125.706 29.8981C125.706 30.1911 125.774 30.4255 125.91 30.6013C126.066 30.7771 126.26 30.865 126.493 30.865C126.862 30.865 127.309 30.6306 127.833 30.1618C128.358 29.6735 129.067 28.8922 129.96 27.8179C130.193 27.5444 130.456 27.4077 130.747 27.4077C130.999 27.4077 131.194 27.5249 131.33 27.7593C131.485 27.9936 131.563 28.3159 131.563 28.7261C131.563 29.5075 131.378 30.113 131.009 30.5427C130.213 31.5389 129.368 32.3788 128.474 33.0624C127.581 33.7461 126.716 34.0879 125.881 34.0879C125.24 34.0879 124.648 33.8731 124.104 33.4433C123.579 32.9941 123.181 32.3886 122.909 31.6268C121.899 33.2675 120.627 34.0879 119.092 34.0879ZM120.141 31.1287C120.568 31.1287 120.976 30.8748 121.365 30.3669C121.753 29.859 122.035 29.1852 122.21 28.3452L123.288 22.9542C122.472 22.9737 121.715 23.2862 121.015 23.8917C120.335 24.4777 119.792 25.2591 119.384 26.2357C118.976 27.2123 118.772 28.2476 118.772 29.3414C118.772 29.9469 118.888 30.3962 119.121 30.6892C119.374 30.9822 119.714 31.1287 120.141 31.1287ZM140.536 25.7376C141.079 25.7376 141.351 26.1478 141.351 26.9682C141.351 28.5113 140.147 29.2828 137.738 29.2828C137.272 29.2828 136.602 29.1949 135.728 29.0191C135.981 30.2302 136.184 31.5779 136.34 33.0624C136.515 34.5274 136.602 35.7384 136.602 36.6956C136.602 38.8051 136.262 40.4166 135.582 41.53C134.902 42.6433 134.009 43.2 132.902 43.2C131.503 43.2 130.503 42.2038 129.901 40.2115C129.318 38.2191 129.027 35.2111 129.027 31.1873C129.027 27.437 129.425 23.6378 130.221 19.7898C131.037 15.9223 132.144 12.7287 133.543 10.2089C134.961 7.66966 136.515 6.40002 138.205 6.40002C139.118 6.40002 139.827 6.81021 140.332 7.63059C140.856 8.45097 141.118 9.55459 141.118 10.9414C141.118 15.5317 138.389 20.5321 132.931 25.9427C132.737 27.8569 132.64 29.5367 132.64 30.9822C132.64 32.9941 132.708 35.0548 132.843 37.1644C132.979 39.2934 133.203 40.358 133.514 40.358C134.096 40.358 134.388 39.3423 134.388 37.3109C134.388 35.7873 134.281 34.3126 134.067 32.8866C133.873 31.4607 133.601 29.9567 133.251 28.3745C133.232 28.1206 133.31 27.7983 133.485 27.4077C133.679 27.017 133.912 26.6752 134.184 26.3822C134.456 26.0892 134.699 25.9427 134.912 25.9427C135.301 25.9427 135.767 25.9622 136.311 26.0013C136.486 26.0208 136.69 26.0306 136.923 26.0306C137.7 26.0306 138.564 25.9622 139.516 25.8255C139.671 25.806 139.836 25.7864 140.011 25.7669C140.186 25.7474 140.361 25.7376 140.536 25.7376ZM137.593 9.30066C137.243 9.30066 136.806 9.89641 136.282 11.0879C135.777 12.2794 135.272 13.8616 134.767 15.8344C134.261 17.7877 133.824 19.8582 133.455 22.0459C135.009 20.2684 136.204 18.4225 137.039 16.5083C137.874 14.5745 138.302 12.7677 138.321 11.0879C138.321 9.89641 138.078 9.30066 137.593 9.30066ZM149.584 28.2866C149.837 28.2866 150.031 28.4038 150.167 28.6382C150.322 28.8726 150.4 29.1949 150.4 29.6051C150.4 30.3083 150.235 30.9138 149.905 31.4217C149.361 32.2616 148.642 32.9159 147.749 33.3847C146.874 33.8535 145.826 34.0879 144.602 34.0879C142.737 34.0879 141.29 33.5312 140.26 32.4179C139.231 31.2849 138.716 29.7614 138.716 27.8472C138.716 26.4994 138.998 25.2493 139.561 24.0968C140.124 22.9249 140.901 21.997 141.892 21.3134C142.902 20.6297 144.039 20.2879 145.301 20.2879C146.428 20.2879 147.331 20.6297 148.011 21.3134C148.691 21.9775 149.031 22.8858 149.031 24.0382C149.031 25.386 148.545 26.5482 147.574 27.5249C146.622 28.482 144.99 29.2438 142.679 29.8102C143.145 30.7087 143.932 31.158 145.039 31.158C145.835 31.158 146.486 30.9724 146.991 30.6013C147.515 30.2302 148.118 29.6051 148.797 28.7261C149.031 28.4331 149.293 28.2866 149.584 28.2866ZM144.806 23.1593C144.087 23.1593 143.475 23.5792 142.97 24.4191C142.485 25.259 142.242 26.2748 142.242 27.4663V27.5249C143.388 27.2514 144.291 26.8412 144.951 26.2943C145.612 25.7474 145.942 25.1126 145.942 24.3898C145.942 24.0187 145.835 23.7257 145.622 23.5109C145.427 23.2765 145.155 23.1593 144.806 23.1593Z" fill="#FF912B"/>
<path d="M168.585 33.6C165.987 33.6 163.907 33.1157 162.344 32.1471C160.781 31.1591 160 29.6578 160 27.6431C160 26.5777 160.186 25.7641 160.557 25.2023C160.928 24.6405 161.475 24.3596 162.197 24.3596C162.725 24.3596 163.155 24.4952 163.487 24.7664C163.819 25.0376 163.985 25.3863 163.985 25.8125C163.985 26.1999 163.955 26.5389 163.897 26.8295C163.897 26.907 163.877 27.0426 163.838 27.2363C163.819 27.43 163.809 27.6334 163.809 27.8465C163.809 28.7183 164.248 29.3672 165.127 29.7934C166.026 30.2196 167.276 30.4327 168.878 30.4327C170.538 30.4327 171.837 30.1421 172.775 29.561C173.712 28.9604 174.181 28.1274 174.181 27.062C174.181 26.4033 173.966 25.8415 173.536 25.3766C173.107 24.8923 172.57 24.4952 171.925 24.1852C171.28 23.8559 170.372 23.4588 169.2 22.9939C167.696 22.4127 166.465 21.8606 165.508 21.3376C164.571 20.8145 163.76 20.1075 163.076 19.2163C162.412 18.3059 162.08 17.1823 162.08 15.8456C162.08 14.4509 162.451 13.2111 163.194 12.1262C163.955 11.0414 165.04 10.1987 166.446 9.59818C167.872 8.99765 169.542 8.69739 171.456 8.69739C172.882 8.69739 174.191 8.91049 175.382 9.33667C176.574 9.74348 177.521 10.3731 178.224 11.2254C178.947 12.0778 179.308 13.1239 179.308 14.3637C179.308 15.5841 179.123 16.5043 178.752 17.1242C178.381 17.7441 177.834 18.054 177.111 18.054C176.603 18.054 176.173 17.8991 175.822 17.5891C175.49 17.2792 175.324 16.9111 175.324 16.4849C175.324 16.1168 175.353 15.7778 175.412 15.4679C175.47 14.8867 175.5 14.5187 175.5 14.3637C175.5 13.5501 175.099 12.9302 174.298 12.504C173.497 12.0778 172.501 11.8647 171.31 11.8647C169.63 11.8647 168.341 12.1747 167.442 12.7946C166.563 13.3951 166.124 14.2475 166.124 15.3517C166.124 16.0878 166.348 16.7174 166.798 17.2404C167.266 17.7635 167.843 18.1993 168.526 18.548C169.21 18.8967 170.167 19.3132 171.398 19.7975C172.882 20.398 174.074 20.9404 174.972 21.4247C175.871 21.909 176.632 22.5677 177.257 23.4007C177.902 24.2337 178.224 25.2604 178.224 26.4808C178.224 28.7667 177.345 30.5295 175.587 31.7694C173.849 32.9898 171.515 33.6 168.585 33.6ZM193.507 26.8876C193.761 26.8876 193.956 27.0039 194.093 27.2363C194.249 27.4688 194.327 27.7884 194.327 28.1952C194.327 28.9701 194.142 29.5706 193.771 29.9968C192.931 31.0235 192.013 31.8662 191.016 32.5249C190.02 33.1835 188.877 33.5128 187.588 33.5128C183.604 33.5128 181.611 30.733 181.611 25.1732C181.611 24.3209 181.64 23.4588 181.699 22.5871H180.556C179.97 22.5871 179.57 22.4805 179.355 22.2674C179.16 22.0543 179.062 21.7153 179.062 21.2504C179.062 20.1656 179.502 19.6232 180.381 19.6232H182.051C182.383 17.4922 182.891 15.5454 183.574 13.7825C184.258 12.0197 185.078 10.6152 186.035 9.56913C187.012 8.52305 188.057 8 189.17 8C189.991 8 190.635 8.35838 191.104 9.07514C191.573 9.7919 191.807 10.6927 191.807 11.7775C191.807 14.7802 190.538 17.3954 187.998 19.6232H191.28C191.593 19.6232 191.817 19.691 191.954 19.8266C192.091 19.9622 192.159 20.214 192.159 20.5821C192.159 21.9187 191.055 22.5871 188.848 22.5871H185.274C185.235 23.5557 185.215 24.3112 185.215 24.8536C185.215 26.8683 185.449 28.2824 185.918 29.096C186.407 29.9096 187.168 30.3165 188.204 30.3165C189.044 30.3165 189.786 30.0646 190.43 29.561C191.075 29.0573 191.837 28.3018 192.716 27.2944C192.95 27.0232 193.214 26.8876 193.507 26.8876ZM188.379 10.7896C188.086 10.7896 187.754 11.1576 187.383 11.8938C187.032 12.6105 186.69 13.6179 186.358 14.9158C186.045 16.1943 185.781 17.6182 185.567 19.1873C186.719 18.1993 187.579 17.0951 188.145 15.8747C188.731 14.6349 189.024 13.5113 189.024 12.504C189.024 11.361 188.809 10.7896 188.379 10.7896ZM194.022 33.5128C193.28 33.5128 192.752 33.1254 192.44 32.3505C192.147 31.5756 192 30.3358 192 28.6311C192 26.1127 192.362 23.7203 193.084 21.4538C193.26 20.892 193.543 20.4852 193.934 20.2334C194.344 19.9622 194.911 19.8266 195.633 19.8266C196.024 19.8266 196.298 19.875 196.454 19.9718C196.61 20.0687 196.688 20.2527 196.688 20.5239C196.688 20.8339 196.542 21.5313 196.249 22.6161C196.053 23.391 195.897 24.069 195.78 24.6502C195.663 25.2313 195.565 25.9481 195.487 26.8004C196.132 25.1345 196.854 23.7784 197.655 22.7324C198.456 21.6863 199.237 20.9404 199.999 20.4949C200.78 20.0493 201.493 19.8266 202.138 19.8266C203.408 19.8266 204.042 20.4561 204.042 21.7153C204.042 21.9672 203.955 22.5774 203.779 23.546C203.623 24.3208 203.544 24.8051 203.544 24.9989C203.544 25.6769 203.789 26.0159 204.277 26.0159C204.824 26.0159 205.527 25.5897 206.386 24.7373C206.64 24.4855 206.904 24.3596 207.178 24.3596C207.431 24.3596 207.627 24.4758 207.764 24.7083C207.92 24.9214 207.998 25.212 207.998 25.58C207.998 26.2968 207.803 26.8586 207.412 27.2654C206.865 27.8272 206.22 28.3115 205.478 28.7183C204.755 29.1057 203.984 29.2994 203.164 29.2994C202.128 29.2994 201.337 29.0379 200.79 28.5149C200.263 27.9918 199.999 27.2847 199.999 26.3936C199.999 26.1031 200.028 25.8125 200.087 25.5219C200.126 25.1345 200.146 24.8729 200.146 24.7373C200.146 24.4274 200.038 24.2724 199.823 24.2724C199.53 24.2724 199.14 24.6017 198.651 25.2604C198.183 25.8997 197.714 26.752 197.245 27.8175C196.776 28.8829 196.395 30.0065 196.102 31.1882C195.887 32.0987 195.633 32.7186 195.34 33.0479C195.067 33.3578 194.628 33.5128 194.022 33.5128ZM218.343 26.8876C218.597 26.8876 218.792 27.0039 218.929 27.2363C219.085 27.4688 219.163 27.7884 219.163 28.1952C219.163 28.9701 218.978 29.5706 218.607 29.9968C217.884 30.8686 216.858 31.6725 215.53 32.4086C214.221 33.1448 212.815 33.5128 211.311 33.5128C209.26 33.5128 207.668 32.9607 206.535 31.8565C205.402 30.7523 204.836 29.2413 204.836 27.3235C204.836 25.9868 205.119 24.747 205.685 23.6041C206.252 22.4418 207.033 21.5216 208.029 20.8436C209.045 20.1656 210.188 19.8266 211.458 19.8266C212.59 19.8266 213.499 20.1656 214.182 20.8436C214.866 21.5022 215.208 22.403 215.208 23.546C215.208 24.8826 214.72 26.0353 213.743 27.0039C212.786 27.9531 211.155 28.7086 208.85 29.2704C209.338 30.1615 210.266 30.607 211.633 30.607C212.512 30.607 213.508 30.3068 214.622 29.7062C215.755 29.0863 216.731 28.2824 217.552 27.2944C217.786 27.0232 218.05 26.8876 218.343 26.8876ZM210.959 22.6742C210.237 22.6742 209.621 23.0907 209.114 23.9237C208.625 24.7567 208.381 25.7641 208.381 26.9457V27.0039C209.533 26.7327 210.442 26.3258 211.106 25.7834C211.77 25.241 212.102 24.6114 212.102 23.8947C212.102 23.5266 211.995 23.236 211.78 23.0229C211.584 22.7905 211.311 22.6742 210.959 22.6742ZM229.845 26.8876C230.099 26.8876 230.295 27.0039 230.431 27.2363C230.588 27.4688 230.666 27.7884 230.666 28.1952C230.666 28.9701 230.48 29.5706 230.109 29.9968C229.386 30.8686 228.361 31.6725 227.033 32.4086C225.724 33.1448 224.318 33.5128 222.814 33.5128C220.763 33.5128 219.171 32.9607 218.038 31.8565C216.905 30.7523 216.338 29.2413 216.338 27.3235C216.338 25.9868 216.622 24.747 217.188 23.6041C217.754 22.4418 218.536 21.5216 219.532 20.8436C220.548 20.1656 221.69 19.8266 222.96 19.8266C224.093 19.8266 225.001 20.1656 225.685 20.8436C226.369 21.5022 226.71 22.403 226.71 23.546C226.71 24.8826 226.222 26.0353 225.245 27.0039C224.288 27.9531 222.657 28.7086 220.352 29.2704C220.841 30.1615 221.769 30.607 223.136 30.607C224.015 30.607 225.011 30.3068 226.124 29.7062C227.257 29.0863 228.234 28.2824 229.054 27.2944C229.289 27.0232 229.552 26.8876 229.845 26.8876ZM222.462 22.6742C221.739 22.6742 221.124 23.0907 220.616 23.9237C220.128 24.7567 219.884 25.7641 219.884 26.9457V27.0039C221.036 26.7327 221.944 26.3258 222.608 25.7834C223.273 25.241 223.605 24.6114 223.605 23.8947C223.605 23.5266 223.497 23.236 223.282 23.0229C223.087 22.7905 222.814 22.6742 222.462 22.6742ZM233.115 22.5871C233.076 23.5557 233.056 24.3112 233.056 24.8536C233.056 26.2484 233.124 27.3429 233.261 28.1371C233.417 28.912 233.662 29.4738 233.994 29.8225C234.345 30.1518 234.824 30.3165 235.429 30.3165C235.742 30.3165 236.113 30.2196 236.543 30.0259C236.972 29.8322 237.363 29.5803 237.715 29.2704C237.929 29.0767 238.144 28.9798 238.359 28.9798C238.594 28.9798 238.779 29.1154 238.916 29.3866C239.072 29.6384 239.15 29.9484 239.15 30.3165C239.15 30.6845 239.072 31.0429 238.916 31.3916C238.779 31.7403 238.564 32.0309 238.271 32.2633C237.256 33.0963 236.103 33.5128 234.814 33.5128C232.958 33.5128 231.601 32.7476 230.741 31.2173C229.882 29.6675 229.452 27.6528 229.452 25.1732C229.452 24.3209 229.481 23.4588 229.54 22.5871H228.397C227.811 22.5871 227.411 22.4805 227.196 22.2674C227.001 22.0543 226.903 21.7153 226.903 21.2504C226.903 20.1656 227.343 19.6232 228.222 19.6232H229.892C230.224 17.4922 230.732 15.5454 231.415 13.7825C232.099 12.0197 232.919 10.6152 233.876 9.56913C234.853 8.52305 235.898 8 237.011 8C237.832 8 238.476 8.35838 238.945 9.07514C239.414 9.7919 239.648 10.6927 239.648 11.7775C239.648 14.7802 238.379 17.3954 235.839 19.6232H239.121C239.434 19.6232 239.658 19.691 239.795 19.8266C239.932 19.9622 240 20.214 240 20.5821C240 21.9187 238.896 22.5871 236.689 22.5871H233.115ZM236.22 10.7896C235.927 10.7896 235.595 11.1576 235.224 11.8938C234.873 12.6105 234.531 13.6179 234.199 14.9158C233.886 16.1943 233.622 17.6182 233.408 19.1873C234.56 18.1993 235.419 17.0951 235.986 15.8747C236.572 14.6349 236.865 13.5113 236.865 12.504C236.865 11.361 236.65 10.7896 236.22 10.7896Z" fill="#2F2105"/>
</g>
<defs>
<clipPath id="clip0_1_250">
<rect width="240" height="48" fill="white"/>
</clipPath>
</defs>
</svg>
